<svg width="38" height="38" viewBox="0 0 38 38" fill="none"
    xmlns="http://www.w3.org/2000/svg">
    <path d="M20.4375 1.5V17.3125H36.25C36.9688 17.3125 37.6875 18.0312 37.6875 18.75C37.6875 19.5586 36.9688 20.1875 36.25 20.1875H20.4375V36C20.4375 36.8086 19.7188 37.4375 19 37.4375C18.1914 37.4375 17.5625 36.8086 17.5625 36V20.1875H1.75C0.941406 20.1875 0.3125 19.5586 0.3125 18.75C0.3125 18.0312 0.941406 17.3125 1.75 17.3125H17.5625V1.5C17.5625 0.78125 18.1914 0.0625 19 0.0625C19.7188 0.0625 20.4375 0.78125 20.4375 1.5Z" fill="#9398A3"/>
</svg>
